<?xml version="1.0" encoding="UTF-8" standalone="no"?>
<!-- Created with Inkscape (http://www.inkscape.org/) -->

<svg
   width="62.030128mm"
   height="11.190579mm"
   viewBox="0 0 80.639169 14.547753"
   version="1.1"
   id="svg5"
   inkscape:version="1.1.2 (0a00cf5339, 2022-02-04)"
   sodipodi:docname="logo-texplot-dark.svg"
   inkscape:export-filename="/home/sia/logo-texplot-dark.png"
   inkscape:export-xdpi="299.47079"
   inkscape:export-ydpi="299.47079"
   xmlns:inkscape="http://www.inkscape.org/namespaces/inkscape"
   xmlns:sodipodi="http://sodipodi.sourceforge.net/DTD/sodipodi-0.dtd"
   xmlns="http://www.w3.org/2000/svg"
   xmlns:svg="http://www.w3.org/2000/svg">
  <sodipodi:namedview
     id="namedview7"
     pagecolor="#ffffff"
     bordercolor="#666666"
     borderopacity="1.0"
     inkscape:pageshadow="2"
     inkscape:pageopacity="0.0"
     inkscape:pagecheckerboard="0"
     inkscape:document-units="mm"
     showgrid="false"
     fit-margin-top="0"
     fit-margin-left="0"
     fit-margin-right="0"
     fit-margin-bottom="0"
     inkscape:zoom="2.4302468"
     inkscape:cx="108.83668"
     inkscape:cy="-56.167135"
     inkscape:window-width="1873"
     inkscape:window-height="1027"
     inkscape:window-x="542"
     inkscape:window-y="307"
     inkscape:window-maximized="0"
     inkscape:current-layer="layer1"
     scale-x="1.3"
     inkscape:snap-global="false" />
  <defs
     id="defs2" />
  <g
     inkscape:label="Layer 1"
     inkscape:groupmode="layer"
     id="layer1"
     transform="translate(-52.205502,-200.78596)">
    <path
       id="text2124-3-3"
       style="font-style:normal;font-variant:normal;font-weight:normal;font-stretch:normal;font-size:13.7583px;line-height:1.25;font-family:Syncopate;-inkscape-font-specification:Syncopate;fill:#ffe013;fill-opacity:1;stroke:none;stroke-width:0.343958"
       d="m 69.680272,203.24475 c -0.816244,0 -1.564847,0.11821 -2.244463,0.35538 -0.678409,0.23677 -1.263202,0.57169 -1.753381,1.00232 -0.490079,0.43053 -0.874231,0.94707 -1.148767,1.54647 -0.27067,0.60098 -0.406435,1.26218 -0.406435,1.97843 0,0.73882 0.142987,1.40851 0.427932,2.00598 0.284303,0.59612 0.689173,1.10836 1.211244,1.52967 a 0.10456532,0.10456532 0 0 0 0.002,0 c 0.526778,0.41685 1.161317,0.734 1.901848,0.95663 0.741321,0.22284 1.567731,0.3359 2.480934,0.3359 0.39217,0 0.750426,-0.0158 1.076213,-0.043 0.329501,-0.0226 0.65204,-0.0587 0.968726,-0.11286 0.316844,-0.0498 0.637485,-0.11621 0.962681,-0.19751 a 0.10456532,0.10456532 0 0 0 0.002,0 c 0.324178,-0.0856 0.675338,-0.1882 1.052702,-0.305 a 0.10456532,0.10456532 0 0 0 0.0739,-0.0994 v -0.97478 a 0.10456532,0.10456532 0 0 0 -0.159886,-0.0873 c -0.171267,0.10705 -0.396284,0.21406 -0.67381,0.31978 -0.277547,0.10125 -0.584857,0.19324 -0.921699,0.27745 -0.33626,0.0796 -0.688996,0.14473 -1.056733,0.19347 -0.367395,0.0487 -0.730331,0.0726 -1.088305,0.0726 -0.843918,0 -1.581515,-0.0847 -2.210873,-0.25193 -0.625975,-0.17192 -1.14919,-0.41529 -1.576028,-0.72889 -0.422741,-0.31378 -0.746819,-0.68974 -0.976788,-1.13668 -0.214037,-0.41596 -0.34342,-0.88656 -0.400389,-1.40001 h 9.718837 a 0.10456532,0.10456532 0 0 0 0.105475,-0.10548 v -0.20959 c 0,-0.75369 -0.119492,-1.43428 -0.357397,-2.0389 v -0.002 c -0.238164,-0.60846 -0.58971,-1.1277 -1.048671,-1.55453 -0.459566,-0.4274 -1.023771,-0.75617 -1.689557,-0.98418 -0.666856,-0.22837 -1.424513,-0.34195 -2.271336,-0.34195 z m -15.572176,0.10144 a 0.10456532,0.10456532 0 0 0 -0.105472,0.10548 v 0.76584 a 0.10456532,0.10456532 0 0 0 0.105472,0.10547 h 4.09391 v 8.35913 a 0.10456532,0.10456532 0 0 0 0.105471,0.10547 h 0.833696 a 0.10456532,0.10456532 0 0 0 0.105472,-0.10547 v -8.35913 h 4.091895 a 0.10456532,0.10456532 0 0 0 0.105472,-0.10547 v -0.76584 a 0.10456532,0.10456532 0 0 0 -0.105472,-0.10548 z m 22.579656,0 a 0.10456532,0.10456532 0 0 0 -0.07592,0.17803 l 4.224912,4.42175 -4.447274,4.66426 a 0.10456532,0.10456532 0 0 0 0.07591,0.17735 h 1.062779 a 0.10456532,0.10456532 0 0 0 0.07591,-0.0329 l 3.900432,-4.0919 3.913871,4.0919 a 0.10456532,0.10456532 0 0 0 0.07659,0.0329 h 1.054714 a 0.10456532,0.10456532 0 0 0 0.07591,-0.17735 l -4.439212,-4.66426 4.224238,-4.42175 a 0.10456532,0.10456532 0 0 0 -0.07591,-0.17803 h -1.060761 a 0.10456532,0.10456532 0 0 0 -0.07591,0.0336 l -3.693521,3.86886 -3.679412,-3.86886 a 0.10456532,0.10456532 0 0 0 -0.07658,-0.0336 z m -7.018901,0.85587 c 0.757062,0 1.399381,0.0933 1.931407,0.28081 a 0.10456532,0.10456532 0 0 0 0,0.002 c 0.540066,0.18879 0.980656,0.44026 1.322089,0.75576 a 0.10456532,0.10456532 0 0 0 0,0.002 c 0.347921,0.31748 0.608088,0.68202 0.781295,1.09771 0.159944,0.37986 0.251664,0.78033 0.290889,1.19714 h -8.765564 c 0.06382,-0.41823 0.181772,-0.81897 0.372846,-1.19714 0.208751,-0.4175 0.495697,-0.7818 0.861911,-1.09569 a 0.10456532,0.10456532 0 0 0 0,-6.8e-4 0.10456532,0.10456532 0 0 0 0,-6.7e-4 0.10456532,0.10456532 0 0 0 0,-6.7e-4 c 0.364995,-0.3172 0.814024,-0.5709 1.345602,-0.7598 0.528144,-0.18769 1.147796,-0.28081 1.859525,-0.28081 z" />
    <path
       id="text2124-3-5"
       style="font-style:normal;font-variant:normal;font-weight:normal;font-stretch:normal;font-size:13.7583px;line-height:1.25;font-family:Syncopate;-inkscape-font-specification:Syncopate;fill:#e9e9e9;fill-opacity:1;stroke:none;stroke-width:0.343958"
       d="m 114.97355,203.16414 c -0.55617,0 -1.0876,0.0428 -1.59551,0.12898 -0.5078,0.0817 -0.9876,0.21148 -1.43361,0.38897 -0.44218,0.17323 -0.84355,0.39325 -1.20923,0.65836 a 0.10456532,0.10456532 0 0 0 -0.002,0 c -0.36276,0.26634 -0.67448,0.58302 -0.93178,0.95059 -0.25771,0.36357 -0.45547,0.77692 -0.59723,1.23878 -0.1424,0.45935 -0.21497,0.96925 -0.21497,1.52901 0,0.84125 0.15439,1.57584 0.46287,2.19743 0.30696,0.6139 0.73182,1.12337 1.27305,1.52699 0.54012,0.39821 1.17483,0.69373 1.90252,0.88475 0.72607,0.19059 1.50935,0.28753 2.3459,0.28753 0.8321,0 1.61014,-0.0969 2.33179,-0.28753 0.72328,-0.19106 1.35343,-0.48645 1.88909,-0.88475 0.53662,-0.40361 0.9601,-0.9132 1.267,-1.52699 0.30857,-0.62175 0.46152,-1.35634 0.46152,-2.19743 0,-0.8411 -0.15282,-1.57197 -0.46152,-2.18938 -0.30686,-0.61829 -0.72984,-1.12958 -1.267,-1.529 -0.53578,-0.40297 -1.16569,-0.69972 -1.88909,-0.8908 -0.72182,-0.19067 -1.49985,-0.28551 -2.33179,-0.28551 z m -26.267807,0.16794 a 0.10456532,0.10456532 0 0 0 -0.105471,0.10548 v 9.23044 a 0.10456532,0.10456532 0 0 0 0.105471,0.10547 h 0.839744 a 0.10456532,0.10456532 0 0 0 0.10547,-0.10547 v -3.44093 h 4.0395 c 0.72248,0 1.3406,-0.0619 1.8575,-0.18541 a 0.10456532,0.10456532 0 0 0 0.002,0 c 0.5207,-0.12789 0.94973,-0.31577 1.28648,-0.56834 0.33605,-0.25204 0.5834,-0.56698 0.73831,-0.93782 0.15878,-0.36895 0.23848,-0.79083 0.23848,-1.26364 0,-0.47283 -0.0797,-0.89469 -0.23848,-1.26365 -0.155,-0.37105 -0.40199,-0.6822 -0.73831,-0.92976 -0.3365,-0.24771 -0.76672,-0.43159 -1.28648,-0.5549 h -0.002 c -0.51699,-0.1279 -1.13569,-0.19147 -1.8575,-0.19147 z m 11.265984,0 a 0.10456532,0.10456532 0 0 0 -0.10548,0.10548 v 6.19931 c 0,0.53144 0.0577,0.9941 0.173333,1.38725 0.11695,0.39763 0.32481,0.73196 0.6214,0.9956 a 0.10456532,0.10456532 0 0 0 0.002,0.002 c 0.30204,0.25959 0.70034,0.44854 1.19109,0.57238 0.49532,0.11925 1.11495,0.17936 1.85952,0.17936 h 4.33979 a 0.10456532,0.10456532 0 0 0 0.10547,-0.10547 v -0.8122 a 0.10456532,0.10456532 0 0 0 -0.10547,-0.10547 h -4.17184 c -0.66618,0 -1.19982,-0.0442 -1.59551,-0.131 h -0.002 c -0.39068,-0.0914 -0.67983,-0.2294 -0.87669,-0.40576 -0.19881,-0.1781 -0.32999,-0.40445 -0.393,-0.6859 -0.065,-0.29021 -0.0974,-0.63993 -0.0974,-1.05069 v -6.03942 a 0.10456532,0.10456532 0 0 0 -0.10547,-0.10548 z m 21.739913,0 a 0.10456532,0.10456532 0 0 0 -0.10547,0.10548 v 0.76584 a 0.10456532,0.10456532 0 0 0 0.10547,0.10547 h 4.09391 v 8.35913 a 0.10456532,0.10456532 0 0 0 0.10547,0.10547 h 0.83168 a 0.10456532,0.10456532 0 0 0 0.10547,-0.10547 v -8.35913 h 4.09391 a 0.10456532,0.10456532 0 0 0 0.10547,-0.10547 v -0.76584 a 0.10456532,0.10456532 0 0 0 -0.10547,-0.10548 z m -6.73809,0.78936 c 0.81206,0 1.52083,0.0863 2.1269,0.262 a 0.10456532,0.10456532 0 0 0 0.002,0.001 c 0.61113,0.17148 1.11613,0.42438 1.5196,0.75845 0.40371,0.3299 0.70741,0.73738 0.91162,1.22401 0.2085,0.4865 0.31306,1.04914 0.31306,1.69158 0,0.64243 -0.1046,1.20717 -0.31306,1.69359 -0.20424,0.48669 -0.50755,0.89549 -0.91162,1.23005 -0.4037,0.3299 -0.91005,0.58382 -1.52161,0.7598 v -0.002 c -0.60639,0.17137 -1.31473,0.25797 -2.1269,0.25797 -0.81219,0 -1.52673,-0.0865 -2.14235,-0.25797 -0.61046,-0.17598 -1.1178,-0.42939 -1.52564,-0.75913 -0.40806,-0.33454 -0.71732,-0.74242 -0.92574,-1.22871 -0.20846,-0.48642 -0.31238,-1.05116 -0.31238,-1.69359 0,-0.63332 0.10379,-1.19075 0.31238,-1.67747 0.20862,-0.49111 0.51759,-0.89873 0.92574,-1.22871 a 0.10456532,0.10456532 0 0 0 0,-6.7e-4 0.10456532,0.10456532 0 0 0 0,-6.8e-4 0.10456532,0.10456532 0 0 0 0,-6.7e-4 c 0.40845,-0.33458 0.9157,-0.59129 1.52698,-0.76719 0.61532,-0.1758 1.32894,-0.262 2.14101,-0.262 z m -25.322593,0.20692 h 3.50206 c 0.63323,0 1.17885,0.0238 1.63514,0.0726 0.45733,0.0484 0.82829,0.14454 1.11317,0.28484 a 0.10456532,0.10456532 0 0 0 0.002,0 c 0.28731,0.13521 0.49225,0.32591 0.62477,0.57438 a 0.10456532,0.10456532 0 0 0 0,0.002 c 0.13635,0.24791 0.20893,0.58269 0.20893,1.00971 0,0.3652 -0.0561,0.66079 -0.16392,0.88878 a 0.10456532,0.10456532 0 0 0 -0.002,0.002 c -0.10595,0.23308 -0.24705,0.41683 -0.42592,0.55826 a 0.10456532,0.10456532 0 0 0 -0.002,0 c -0.17728,0.14351 -0.38382,0.25397 -0.62275,0.3265 -0.23971,0.0696 -0.49264,0.11983 -0.7598,0.15048 -0.26864,0.0264 -0.54093,0.0389 -0.81824,0.039 -0.2779,-0.004 -0.54209,-0.008 -0.78936,-0.008 h -3.50206 z" />
    <rect
       style="opacity:0.583886;fill:none;fill-opacity:1;stroke:none;stroke-width:0.343958"
       id="rect21499"
       width="80.639168"
       height="14.547752"
       x="52.205502"
       y="200.78596" />
  </g>
</svg>
